# File created by Blade
# Date/Time:  Thu Sep 25 19:32:06 2014
# Frame Rate: 120.000 fps
#------------------------------------------------------
:FULLY-SPECIFIED
:DEGREES
2562
root 6.541891 33.188843 -1.668642 16.407377 -25.684078 -7.960866
Spine -1.036955 9.054011 5.483745
Head -22.327248 9.782883 0.355419
LeftShoulder -13.447509 21.310992 12.542586
LeftArm 18.871763 -2.270028 -62.854702
LeftForeArm 9.380966 -0.000000 21.135129
LeftHand -27.917156 -0.000000 1.817416
LeftHandThumb1 -26.253704 0.000000 33.147579
RightShoulder -18.945022 15.339941 -37.244485
RightArm -7.188466 12.378566 36.503717
RightForeArm -16.816555 -0.000000 18.761406
RightHand -6.113195 -0.000000 -5.298488
RightHandThumb1 -24.326973 -0.000000 -32.862282
LeftUpLeg -13.191277 15.573241 -2.895062
LeftLeg 6.970722 -0.000000 -0.000000
LeftFoot -16.797111 17.356216 -12.415211
LeftToeBase 9.469224 -0.000000 -0.000000
RightUpLeg -3.501462 -8.569700 1.133752
RightLeg 17.505359 -0.000000 -0.000000
RightFoot -16.469009 -7.147160 6.527853
RightToeBase -3.936778 -0.000000 0.000000
2563
root 6.502156 33.200496 -1.679226 16.373250 -25.494992 -7.994685
Spine -1.075106 9.073296 5.454386
Head -22.541397 9.685504 0.505039
LeftShoulder -13.549258 21.349192 12.785192
LeftArm 18.910025 -3.166313 -62.394026
LeftForeArm 9.468627 -0.000000 21.166478
LeftHand -28.159713 -0.000000 2.365539
LeftHandThumb1 -26.253704 0.000000 33.147579
RightShoulder -19.004765 15.291701 -37.266414
RightArm -7.324022 12.478115 36.486790
RightForeArm -16.976370 -0.000000 18.795771
RightHand -6.155766 -0.000000 -5.392703
RightHandThumb1 -24.326973 -0.000000 -32.862282
LeftUpLeg -12.926914 15.617305 -2.755131
LeftLeg 6.506181 -0.000000 -0.000000
LeftFoot -16.531482 17.178676 -12.391741
LeftToeBase 9.503882 -0.000000 -0.000000
RightUpLeg -3.874771 -8.584339 0.981091
RightLeg 17.221651 -0.000000 -0.000000
RightFoot -16.317496 -6.894248 6.503270
RightToeBase -4.107649 -0.000000 0.000000
2564
root 6.460827 33.212742 -1.690787 16.382761 -25.291013 -8.049924
Spine -1.171645 9.039930 5.453042
Head -22.730201 9.636604 0.662109
LeftShoulder -13.682411 21.445822 13.013857
LeftArm 18.974396 -4.050724 -61.917594
LeftForeArm 9.557307 0.000000 21.153763
LeftHand -28.407096 -0.000000 2.614572
LeftHandThumb1 -26.253704 0.000000 33.147579
RightShoulder -19.040267 15.250869 -37.258956
RightArm -7.377984 12.546261 36.454064
RightForeArm -17.005978 -0.000000 18.768881
RightHand -6.347850 -0.000000 -5.624975
RightHandThumb1 -24.326973 -0.000000 -32.862282
LeftUpLeg -12.692188 15.649080 -2.596119
LeftLeg 6.029358 -0.000000 -0.000000
LeftFoot -16.304534 16.988656 -12.512293
LeftToeBase 9.567557 -0.000000 -0.000000
RightUpLeg -4.255964 -8.533279 0.878700
RightLeg 16.822212 -0.000000 -0.000000
RightFoot -16.139244 -6.731386 6.617060
RightToeBase -4.209587 -0.000000 0.000000
2565
root 6.420694 33.225286 -1.710323 16.395528 -25.052128 -8.105933
Spine -1.248420 9.012119 5.448759
Head -22.954830 9.505502 0.832843
LeftShoulder -13.750469 21.500071 13.282584
LeftArm 18.995857 -4.926438 -61.437542
LeftForeArm 9.738146 0.000000 21.182989
LeftHand -28.737531 -0.000000 3.113720
LeftHandThumb1 -26.253704 0.000000 33.147579
RightShoulder -19.078700 15.289853 -37.296950
RightArm -7.596372 12.661661 36.381055
RightForeArm -17.263252 -0.000000 18.887169
RightHand -6.587937 -0.000000 -5.461626
RightHandThumb1 -24.326973 -0.000000 -32.862282
LeftUpLeg -12.479821 15.543451 -2.394235
LeftLeg 5.590681 -0.000000 -0.000000
LeftFoot -16.030934 16.834403 -12.509489
LeftToeBase 9.544529 -0.000000 -0.000000
RightUpLeg -4.625012 -8.284342 0.796699
RightLeg 16.374855 -0.000000 -0.000000
RightFoot -15.906781 -6.631047 6.737178
RightToeBase -4.366553 -0.000000 0.000000
2566
root 6.383139 33.234752 -1.724652 16.354783 -24.822799 -8.103166
Spine -1.279488 8.977785 5.391084
Head -23.186422 9.394262 0.973559
LeftShoulder -13.829683 21.515831 13.580841
LeftArm 19.026842 -5.766148 -60.939856
LeftForeArm 9.842075 0.000000 21.153417
LeftHand -28.964840 0.000000 3.338864
LeftHandThumb1 -26.253704 0.000000 33.147579
RightShoulder -19.150162 15.285979 -37.309953
RightArm -7.700413 12.768902 36.320459
RightForeArm -17.401886 -0.000000 18.874433
RightHand -6.608174 0.000000 -5.660137
RightHandThumb1 -24.326973 -0.000000 -32.862282
LeftUpLeg -12.218543 15.467197 -2.265595
LeftLeg 5.112404 -0.000000 -0.000000
LeftFoot -15.763368 16.679624 -12.533672
LeftToeBase 9.682369 -0.000000 -0.000000
RightUpLeg -5.119117 -8.500552 0.639756
RightLeg 16.203456 -0.000000 -0.000000
RightFoot -15.640031 -6.191116 6.695938
RightToeBase -4.807544 -0.000000 0.000000
2567
root 6.345781 33.246091 -1.744586 16.350496 -24.579466 -8.136673
Spine -1.333091 8.897015 5.385950
Head -23.405500 9.357851 1.108744
LeftShoulder -13.923481 21.553060 13.800792
LeftArm 19.051947 -6.590330 -60.361293
LeftForeArm 9.668595 0.000000 21.076368
LeftHand -29.196299 -0.000000 4.362717
LeftHandThumb1 -26.253704 0.000000 33.147579
RightShoulder -19.142123 15.360959 -37.343228
RightArm -7.913048 12.900120 36.212356
RightForeArm -17.719012 -0.000000 18.994771
RightHand -6.703167 0.000000 -5.452617
RightHandThumb1 -24.326973 -0.000000 -32.862282
LeftUpLeg -11.989164 15.391188 -2.090432
LeftLeg 4.616999 -0.000000 -0.000000
LeftFoot -15.450946 16.553323 -12.540032
LeftToeBase 9.586570 -0.000000 -0.000000
RightUpLeg -5.599734 -8.599660 0.543404
RightLeg 15.903210 -0.000000 -0.000000
RightFoot -15.338961 -6.007435 6.513679
RightToeBase -4.925760 -0.000000 0.000000
2568
root 6.304478 33.256168 -1.761943 16.331489 -24.318352 -8.189099
Spine -1.366659 8.848421 5.416560
Head -23.593417 9.237248 1.205808
LeftShoulder -14.037250 21.640813 14.019809
LeftArm 19.197830 -7.353891 -59.766014
LeftForeArm 9.612812 -0.000000 20.962595
LeftHand -29.258087 -0.000000 4.722753
LeftHandThumb1 -26.253704 0.000000 33.147579
RightShoulder -19.182642 15.421350 -37.397208
RightArm -8.077023 12.901998 36.121433
RightForeArm -17.764666 -0.000000 19.027670
RightHand -6.800721 -0.000000 -5.736237
RightHandThumb1 -24.326973 -0.000000 -32.862282
LeftUpLeg -11.750107 15.322773 -1.901667
LeftLeg 4.164802 -0.000000 -0.000000
LeftFoot -15.233091 16.392280 -12.687932
LeftToeBase 9.641197 -0.000000 -0.000000
RightUpLeg -6.004683 -8.567337 0.469722
RightLeg 15.505361 -0.000000 -0.000000
RightFoot -15.090911 -5.871961 6.412462
RightToeBase -5.042329 -0.000000 0.000000
